<svg width="1600" height="200" viewBox="0 0 1600 200" xmlns="http://www.w3.org/2000/svg">
  <path fill="#8b5cf6" fill-opacity="0.05" d="M0,192L48,197.3C96,203,192,213,288,202.7C384,192,480,160,576,133.3C672,107,768,85,864,96C960,107,1056,149,1152,165.3C1248,181,1344,171,1392,165.3L1440,160L1440,320L1392,320C1344,320,1248,320,1152,320C1056,320,960,320,864,320C768,320,672,320,576,320C480,320,384,320,288,320C192,320,96,320,48,320L0,320Z"></path>
  <path fill="#14b8a6" fill-opacity="0.05" d="M0,64L48,80C96,96,192,128,288,133.3C384,139,480,117,576,112C672,107,768,117,864,106.7C960,96,1056,64,1152,80C1248,96,1344,160,1392,192L1440,224L1440<boltAction type="file" filePath="public/images/wave-pattern.svg">
<svg width="1600" height="200" viewBox="0 0 1600 200" xmlns="http://www.w3.org/2000/svg">
  <path fill="#8b5cf6" fill-opacity="0.05" d="M0,192L48,197.3C96,203,192,213,288,202.7C384,192,480,160,576,133.3C672,107,768,85,864,96C960,107,1056,149,1152,165.3C1248,181,1344,171,1392,165.3L1440,160L1440,320L1392,320C1344,320,1248,320,1152,320C1056,320,960,320,864,320C768,320,672,320,576,320C480,320,384,320,288,320C192,320,96,320,48,320L0,320Z"></path>
  <path fill="#14b8a6" fill-opacity="0.05" d="M0,64L48,80C96,96,192,128,288,133.3C384,139,480,117,576,112C672,107,768,117,864,106.7C960,96,1056,64,1152,80C1248,96,1344,160,1392,192L1440,224L1440,320L1392,320C1344,320,1248,320,1152,320C1056,320,960,320,864,320C768,320,672,320,576,320C480,320,384,320,288,320C192,320,96,320,48,320L0,320Z"></path>
  <path fill="#f97316" fill-opacity="0.05" d="M0,128L48,112C96,96,192,64,288,69.3C384,75,480,117,576,122.7C672,128,768,96,864,80C960,64,1056,64,1152,85.3C1248,107,1344,149,1392,170.7L1440,192L1440,320L1392,320C1344,320,1248,320,1152,320C1056,320,960,320,864,320C768,320,672,320,576,320C480,320,384,320,288,320C192,320,96,320,48,320L0,320Z"></path>
</svg>
